<?xml version="1.0" encoding="UTF-8"?>
<svg width="375px" height="152px" viewBox="0 0 375 152" version="1.1" xmlns="http://www.w3.org/2000/svg" xmlns:xlink="http://www.w3.org/1999/xlink">
    <!-- Generator: Sketch 42 (36781) - http://www.bohemiancoding.com/sketch -->
    <title>header</title>
    <desc>Created with Sketch.</desc>
    <defs></defs>
    <g id="Page-1" stroke="none" stroke-width="1" fill="none" fill-rule="evenodd">
        <g id="maps" fill="#FFFFFF">
            <g id="header" transform="translate(-36.000000, 0.000000)">
                <path d="M411,69.265079 L411,0 L36,0 L36,73.539724 C39.1970034,73.6142841 42.3765872,73.8690464 45.4923026,74.3140965 C60.2001974,76.4146009 76.2225658,84.2054549 90.8811184,80.8101009 C107.145592,77.0429062 124.627171,71.6030876 141.392303,73.7662248 C161.122566,76.311092 180.444276,83.1196009 200.433092,79.9793929 C216.984408,77.3791451 230.457434,74.8138398 247.332434,77.1932248 C257.815329,78.6720168 268.317303,80.0756496 278.941645,79.8798398 C291.161382,79.6543619 302.50875,75.9821053 314.043618,72.2735876 C329.495592,67.3058221 344.220592,66.0531673 360.315987,68.935592 C367.239013,70.1757204 374.080461,71.5061717 381.081118,72.4126982 C392.839219,73.9351082 400.955251,72.2269061 411,69.265079 Z"></path>
                <g id="bubbles" transform="translate(0.000000, 64.000000)">
                    <path d="M38.6653226,26.0256173 C38.6653226,24.5141358 37.4404575,23.2885926 35.9298123,23.2885926 C34.4191672,23.2885926 33.1943021,24.5141358 33.1943021,26.0256173 C33.1943021,27.5370988 34.4191672,28.762642 35.9298123,28.762642 C37.4404575,28.762642 38.6653226,27.5370988 38.6653226,26.0256173" id="Fill-1"></path>
                    <path d="M233.202152,30.4467988 C233.202152,28.9353173 231.977287,27.7097741 230.465988,27.7097741 C228.955343,27.7097741 227.730477,28.9353173 227.730477,30.4467988 C227.730477,31.9582802 228.955343,33.1838235 230.465988,33.1838235 C231.977287,33.1838235 233.202152,31.9582802 233.202152,30.4467988" id="Fill-3"></path>
                    <path d="M354.197309,52.6943012 C354.197309,51.1828198 352.972444,49.9572765 351.461145,49.9572765 C349.950499,49.9572765 348.725634,51.1828198 348.725634,52.6943012 C348.725634,54.2057827 349.950499,55.4313259 351.461145,55.4313259 C352.972444,55.4313259 354.197309,54.2057827 354.197309,52.6943012" id="Fill-5"></path>
                    <path d="M355.590765,20.284016 C355.590765,18.7725346 354.365899,17.5469914 352.8546,17.5469914 C351.343955,17.5469914 350.11909,18.7725346 350.11909,20.284016 C350.11909,21.7954975 351.343955,23.0210407 352.8546,23.0210407 C354.365899,23.0210407 355.590765,21.7954975 355.590765,20.284016" id="Fill-7"></path>
                    <path d="M376.636275,33.5103951 C376.636275,31.9989136 375.41141,30.7733704 373.900111,30.7733704 C372.389466,30.7733704 371.164601,31.9989136 371.164601,33.5103951 C371.164601,35.0218765 372.389466,36.2474198 373.900111,36.2474198 C375.41141,36.2474198 376.636275,35.0218765 376.636275,33.5103951" id="Fill-9"></path>
                    <path d="M406.695367,16.2038012 C406.695367,14.6923198 405.470502,13.4667765 403.959203,13.4667765 C402.448558,13.4667765 401.223693,14.6923198 401.223693,16.2038012 C401.223693,17.7152827 402.448558,18.9408259 403.959203,18.9408259 C405.470502,18.9408259 406.695367,17.7152827 406.695367,16.2038012" id="Fill-11"></path>
                    <path d="M406.695367,55.4313914 C406.695367,53.9199099 405.470502,52.6943667 403.959203,52.6943667 C402.448558,52.6943667 401.223693,53.9199099 401.223693,55.4313914 C401.223693,56.9428728 402.448558,58.168416 403.959203,58.168416 C405.470502,58.168416 406.695367,56.9428728 406.695367,55.4313914" id="Fill-13"></path>
                    <path d="M96.9455551,17.5469259 C96.9455551,16.0354444 95.72069,14.8099012 94.2100449,14.8099012 C92.6993997,14.8099012 91.4745346,16.0354444 91.4745346,17.5469259 C91.4745346,19.0584074 92.6993997,20.2839506 94.2100449,20.2839506 C95.72069,20.2839506 96.9455551,19.0584074 96.9455551,17.5469259" id="Fill-17"></path>
                    <path d="M157.428779,27.7096432 C157.428779,26.1981617 156.203914,24.9726185 154.693269,24.9726185 C153.182624,24.9726185 151.957759,26.1981617 151.957759,27.7096432 C151.957759,29.2211247 153.182624,30.4466679 154.693269,30.4466679 C156.203914,30.4466679 157.428779,29.2211247 157.428779,27.7096432" id="Fill-19"></path>
                    <path d="M62.6493977,28.7627074 C62.6493977,27.9932259 62.0255208,27.3690037 61.2564651,27.3690037 C60.4867554,27.3690037 59.8628786,27.9932259 59.8628786,28.7627074 C59.8628786,29.5321889 60.4867554,30.1564111 61.2564651,30.1564111 C62.0255208,30.1564111 62.6493977,29.5321889 62.6493977,28.7627074" id="Fill-23"></path>
                    <path d="M69.9751765,34.9043605 C69.9751765,34.134879 69.3512997,33.5106568 68.582244,33.5106568 C67.8125343,33.5106568 67.1886575,34.134879 67.1886575,34.9043605 C67.1886575,35.673842 67.8125343,36.2980642 68.582244,36.2980642 C69.3512997,36.2980642 69.9751765,35.673842 69.9751765,34.9043605" id="Fill-25"></path>
                    <path d="M52.9214968,86.4557593 C52.9214968,85.6862778 52.2976199,85.0620556 51.5285642,85.0620556 C50.7588545,85.0620556 50.1349777,85.6862778 50.1349777,86.4557593 C50.1349777,87.2252407 50.7588545,87.849463 51.5285642,87.849463 C52.2976199,87.849463 52.9214968,87.2252407 52.9214968,86.4557593" id="Fill-27"></path>
                    <path d="M77.8961235,27.368742 C77.8961235,26.5992605 77.2722466,25.9750383 76.5031909,25.9750383 C75.7334812,25.9750383 75.1096044,26.5992605 75.1096044,27.368742 C75.1096044,28.1382235 75.7334812,28.7624457 76.5031909,28.7624457 C77.2722466,28.7624457 77.8961235,28.1382235 77.8961235,27.368742" id="Fill-29"></path>
                    <path d="M80.6824463,64.922579 C80.6824463,64.1530975 80.0585695,63.5288753 79.2895138,63.5288753 C78.5198041,63.5288753 77.8959273,64.1530975 77.8959273,64.922579 C77.8959273,65.6920605 78.5198041,66.3162827 79.2895138,66.3162827 C80.0585695,66.3162827 80.6824463,65.6920605 80.6824463,64.922579" id="Fill-31"></path>
                    <path d="M37.3228757,10.337879 C37.3228757,9.56839753 36.6989988,8.94417531 35.9299431,8.94417531 C35.1602334,8.94417531 34.5363566,9.56839753 34.5363566,10.337879 C34.5363566,11.1073605 35.1602334,11.7315827 35.9299431,11.7315827 C36.6989988,11.7315827 37.3228757,11.1073605 37.3228757,10.337879" id="Fill-35"></path>
                    <path d="M305.344548,16.2038012 C305.344548,15.4343198 304.720018,14.8100975 303.950962,14.8100975 C303.181906,14.8100975 302.557375,15.4343198 302.557375,16.2038012 C302.557375,16.9732827 303.181906,17.5975049 303.950962,17.5975049 C304.720018,17.5975049 305.344548,16.9732827 305.344548,16.2038012" id="Fill-37"></path>
                    <path d="M328.733782,27.368742 C328.733782,26.5992605 328.109252,25.9750383 327.340196,25.9750383 C326.57114,25.9750383 325.946609,26.5992605 325.946609,27.368742 C325.946609,28.1382235 326.57114,28.7624457 327.340196,28.7624457 C328.109252,28.7624457 328.733782,28.1382235 328.733782,27.368742" id="Fill-39"></path>
                    <path d="M364.338773,22.0188827 C364.338773,21.2494012 363.714243,20.625179 362.945187,20.625179 C362.176131,20.625179 361.5516,21.2494012 361.5516,22.0188827 C361.5516,22.7883642 362.176131,23.4125864 362.945187,23.4125864 C363.714243,23.4125864 364.338773,22.7883642 364.338773,22.0188827" id="Fill-41"></path>
                    <path d="M337.58649,1.39403086 C337.58649,0.624549383 336.961959,0.000327160494 336.192904,0.000327160494 C335.423848,0.000327160494 334.799317,0.624549383 334.799317,1.39403086 C334.799317,2.16351235 335.423848,2.78773457 336.192904,2.78773457 C336.961959,2.78773457 337.58649,2.16351235 337.58649,1.39403086" id="Fill-43"></path>
                    <path d="M337.58649,16.2038012 C337.58649,15.4343198 336.961959,14.8100975 336.192904,14.8100975 C335.423848,14.8100975 334.799317,15.4343198 334.799317,16.2038012 C334.799317,16.9732827 335.423848,17.5975049 336.192904,17.5975049 C336.961959,17.5975049 337.58649,16.9732827 337.58649,16.2038012" id="Fill-45"></path>
                    <path d="M352.854862,7.25988765 C352.854862,6.49040617 352.230331,5.86618395 351.461275,5.86618395 C350.69222,5.86618395 350.067689,6.49040617 350.067689,7.25988765 C350.067689,8.02936914 350.69222,8.65359136 351.461275,8.65359136 C352.230331,8.65359136 352.854862,8.02936914 352.854862,7.25988765" id="Fill-47"></path>
                    <path d="M398.683062,2.7879963 C398.683062,2.01851481 398.058531,1.39429259 397.289476,1.39429259 C396.52042,1.39429259 395.895889,2.01851481 395.895889,2.7879963 C395.895889,3.55747778 396.52042,4.1817 397.289476,4.1817 C398.058531,4.1817 398.683062,3.55747778 398.683062,2.7879963" id="Fill-49"></path>
                    <path d="M409.482344,33.5103951 C409.482344,32.7409136 408.857813,32.1166914 408.088757,32.1166914 C407.319702,32.1166914 406.695171,32.7409136 406.695171,33.5103951 C406.695171,34.2798765 407.319702,34.9040988 408.088757,34.9040988 C408.857813,34.9040988 409.482344,34.2798765 409.482344,33.5103951" id="Fill-53"></path>
                    <path d="M391.535552,51.3004012 C391.535552,50.5309198 390.911022,49.9066975 390.141966,49.9066975 C389.37291,49.9066975 388.748379,50.5309198 388.748379,51.3004012 C388.748379,52.0698827 389.37291,52.6941049 390.141966,52.6941049 C390.911022,52.6941049 391.535552,52.0698827 391.535552,51.3004012" id="Fill-63"></path>
                    <path d="M79.2893176,14.8098358 C79.2893176,14.0403543 78.6654408,13.4161321 77.896385,13.4161321 C77.1266754,13.4161321 76.5027985,14.0403543 76.5027985,14.8098358 C76.5027985,15.5793173 77.1266754,16.2035395 77.896385,16.2035395 C78.6654408,16.2035395 79.2893176,15.5793173 79.2893176,14.8098358" id="Fill-67"></path>
                    <path d="M166.465707,17.8878272 C166.465707,17.1183457 165.84183,16.4941235 165.072774,16.4941235 C164.303065,16.4941235 163.679188,17.1183457 163.679188,17.8878272 C163.679188,18.6573086 164.303065,19.2815309 165.072774,19.2815309 C165.84183,19.2815309 166.465707,18.6573086 166.465707,17.8878272" id="Fill-71"></path>
                    <path d="M178.480633,33.5103951 C178.480633,32.7409136 177.856756,32.1166914 177.087701,32.1166914 C176.317991,32.1166914 175.694114,32.7409136 175.694114,33.5103951 C175.694114,34.2798765 176.317991,34.9040988 177.087701,34.9040988 C177.856756,34.9040988 178.480633,34.2798765 178.480633,33.5103951" id="Fill-73"></path>
                    <path d="M138.871713,23.2885272 C138.871713,22.5190457 138.247836,21.8948235 137.478781,21.8948235 C136.709071,21.8948235 136.085194,22.5190457 136.085194,23.2885272 C136.085194,24.0580086 136.709071,24.6822309 137.478781,24.6822309 C138.247836,24.6822309 138.871713,24.0580086 138.871713,23.2885272" id="Fill-75"></path>
                    <path d="M120.769083,30.7224642 C120.769083,29.9529827 120.145206,29.3287605 119.376151,29.3287605 C118.606441,29.3287605 117.982564,29.9529827 117.982564,30.7224642 C117.982564,31.4919457 118.606441,32.1161679 119.376151,32.1161679 C120.145206,32.1161679 120.769083,31.4919457 120.769083,30.7224642" id="Fill-77"></path>
                    <path d="M231.859705,14.8098358 C231.859705,14.0403543 231.235828,13.4161321 230.466118,13.4161321 C229.697063,13.4161321 229.073186,14.0403543 229.073186,14.8098358 C229.073186,15.5793173 229.697063,16.2035395 230.466118,16.2035395 C231.235828,16.2035395 231.859705,15.5793173 231.859705,14.8098358" id="Fill-79"></path>
                    <path d="M215.213442,11.7318444 C215.213442,10.962363 214.589565,10.3381407 213.819855,10.3381407 C213.050799,10.3381407 212.426923,10.962363 212.426923,11.7318444 C212.426923,12.5013259 213.050799,13.1255481 213.819855,13.1255481 C214.589565,13.1255481 215.213442,12.5013259 215.213442,11.7318444" id="Fill-81"></path>
                    <path d="M194.500404,24.6824926 C194.500404,23.9130111 193.876527,23.2887889 193.106817,23.2887889 C192.337762,23.2887889 191.713885,23.9130111 191.713885,24.6824926 C191.713885,25.4519741 192.337762,26.0761963 193.106817,26.0761963 C193.876527,26.0761963 194.500404,25.4519741 194.500404,24.6824926" id="Fill-83"></path>
                    <path d="M193.10721,39.5686222 C193.10721,38.7991407 192.483333,38.1749185 191.713623,38.1749185 C190.944567,38.1749185 190.320691,38.7991407 190.320691,39.5686222 C190.320691,40.3381037 190.944567,40.9623259 191.713623,40.9623259 C192.483333,40.9623259 193.10721,40.3381037 193.10721,39.5686222" id="Fill-85"></path>
                    <path d="M281.799476,17.8878272 C281.799476,17.1183457 281.175599,16.4941235 280.405889,16.4941235 C279.636834,16.4941235 279.012957,17.1183457 279.012957,17.8878272 C279.012957,18.6573086 279.636834,19.2815309 280.405889,19.2815309 C281.175599,19.2815309 281.799476,18.6573086 281.799476,17.8878272" id="Fill-87"></path>
                    <path d="M58.588705,68.8350914 C58.588705,68.0656099 57.9648282,67.4413877 57.1957724,67.4413877 C56.4260628,67.4413877 55.8021859,68.0656099 55.8021859,68.8350914 C55.8021859,69.6045728 56.4260628,70.2287951 57.1957724,70.2287951 C57.9648282,70.2287951 58.588705,69.6045728 58.588705,68.8350914" id="Fill-91"></path>
                    <path d="M54.6045909,45.434479 C54.6045909,42.9650716 52.6034765,40.9628494 50.1354355,40.9628494 C47.6667405,40.9628494 45.6656261,42.9650716 45.6656261,45.434479 C45.6656261,47.9038864 47.6667405,49.9061086 50.1354355,49.9061086 C52.6034765,49.9061086 54.6045909,47.9038864 54.6045909,45.434479" id="Fill-93"></path>
                    <path d="M95.9438862,62.1854889 C95.9438862,59.7160815 93.9427718,57.7138593 91.4747308,57.7138593 C89.0060358,57.7138593 87.0049214,59.7160815 87.0049214,62.1854889 C87.0049214,64.6548963 89.0060358,66.6571185 91.4747308,66.6571185 C93.9427718,66.6571185 95.9438862,64.6548963 95.9438862,62.1854889" id="Fill-95"></path>
                    <path d="M57.3909138,7.25988765 C57.3909138,4.79048025 55.3897994,2.78825802 52.9217584,2.78825802 C50.4530633,2.78825802 48.451949,4.79048025 48.451949,7.25988765 C48.451949,9.72929506 50.4530633,11.7315173 52.9217584,11.7315173 C55.3897994,11.7315173 57.3909138,9.72929506 57.3909138,7.25988765" id="Fill-97"></path>
                    <path d="M257.966989,10.337879 C257.966989,7.8684716 255.965874,5.86624938 253.497833,5.86624938 C251.029792,5.86624938 249.028678,7.8684716 249.028678,10.337879 C249.028678,12.8072864 251.029792,14.8095086 253.497833,14.8095086 C255.965874,14.8095086 257.966989,12.8072864 257.966989,10.337879" id="Fill-102"></path>
                    <path d="M322.871106,13.0752963 C320.403065,13.0752963 318.40195,15.0775185 318.40195,17.5469259 C318.40195,20.0163333 320.403065,22.0185556 322.871106,22.0185556 C325.339147,22.0185556 327.340261,20.0163333 327.340261,17.5469259 C327.340261,15.0775185 325.339147,13.0752963 322.871106,13.0752963 Z" id="Fill-104"></path>
                    <path d="M382.838618,5.86598765 C382.838618,3.39658025 380.837504,1.39435802 378.369462,1.39435802 C375.901421,1.39435802 373.900307,3.39658025 373.900307,5.86598765 C373.900307,8.33539506 375.901421,10.3376173 378.369462,10.3376173 C380.837504,10.3376173 382.838618,8.33539506 382.838618,5.86598765" id="Fill-106"></path>
                    <path d="M111.652307,11.7318444 C111.652307,9.26243704 109.651193,7.26021481 107.183152,7.26021481 C104.714457,7.26021481 102.713342,9.26243704 102.713342,11.7318444 C102.713342,14.2012519 104.714457,16.2034741 107.183152,16.2034741 C109.651193,16.2034741 111.652307,14.2012519 111.652307,11.7318444" id="Fill-110"></path>
                    <path d="M147.810678,14.8098358 C147.810678,12.3404284 145.809564,10.3382062 143.341523,10.3382062 C140.872828,10.3382062 138.871713,12.3404284 138.871713,14.8098358 C138.871713,17.2792432 140.872828,19.2814654 143.341523,19.2814654 C145.809564,19.2814654 147.810678,17.2792432 147.810678,14.8098358" id="Fill-112"></path>
                    <path d="M213.820313,25.974842 C213.820313,23.5054346 211.819199,21.5032123 209.351157,21.5032123 C206.882462,21.5032123 204.881348,23.5054346 204.881348,25.974842 C204.881348,28.4442494 206.882462,30.4464716 209.351157,30.4464716 C211.819199,30.4464716 213.820313,28.4442494 213.820313,25.974842" id="Fill-114"></path>
                    <path d="M203.439303,16.4938617 C203.439303,14.0244543 201.438189,12.0222321 198.970148,12.0222321 C196.501453,12.0222321 194.500338,14.0244543 194.500338,16.4938617 C194.500338,18.9632691 196.501453,20.9654914 198.970148,20.9654914 C201.438189,20.9654914 203.439303,18.9632691 203.439303,16.4938617" id="Fill-116"></path>
                    <path d="M186.738173,12.0219704 C186.738173,7.45939012 183.040689,3.75985926 178.480633,3.75985926 C173.920577,3.75985926 170.223094,7.45939012 170.223094,12.0219704 C170.223094,16.5845506 173.920577,20.2840815 178.480633,20.2840815 C183.040689,20.2840815 186.738173,16.5845506 186.738173,12.0219704" id="Fill-118"></path>
                </g>
            </g>
        </g>
    </g>
</svg>