<?xml version="1.0" encoding="UTF-8"?>
<svg width="97px" height="14px" viewBox="0 0 97 14" version="1.1" xmlns="http://www.w3.org/2000/svg" xmlns:xlink="http://www.w3.org/1999/xlink">
    <!-- Generator: Sketch 42 (36781) - http://www.bohemiancoding.com/sketch -->
    <title>logo</title>
    <desc>Created with Sketch.</desc>
    <defs></defs>
    <g id="Page-1" stroke="none" stroke-width="1" fill="none" fill-rule="evenodd">
        <g id="start" transform="translate(-139.000000, -28.000000)" fill="#EEBA4F">
            <g id="logo" transform="translate(139.000000, 28.000000)">
                <path d="M16,0 L20.2982456,0 C22.2568699,0 23.6785831,0.278674676 24.5634278,0.836032389 C25.4482725,1.3933901 25.8906883,2.27979599 25.8906883,3.49527665 C25.8906883,4.32029202 25.697033,4.9972983 25.3097166,5.52631579 C24.9224002,6.05533328 24.4075606,6.37336879 23.7651822,6.48043185 L23.7651822,6.57489879 C24.6405802,6.77013143 25.2719279,7.13539993 25.6592443,7.67071525 C26.0465606,8.20603057 26.2402159,8.91767437 26.2402159,9.80566802 C26.2402159,11.0652335 25.7852047,12.0476798 24.8751687,12.7530364 C23.9651327,13.4583931 22.7292026,13.8110661 21.1673414,13.8110661 L16,13.8110661 L16,0 Z M18.928475,5.46963563 L20.6288799,5.46963563 C21.4224061,5.46963563 21.9970742,5.34682984 22.3529015,5.10121457 C22.7087287,4.85559931 22.8866397,4.44939555 22.8866397,3.88259109 C22.8866397,3.3535736 22.6929844,2.9741352 22.305668,2.74426451 C21.9183516,2.51439381 21.3058971,2.39946019 20.4682861,2.39946019 L18.928475,2.39946019 L18.928475,5.46963563 Z M18.928475,7.79352227 L18.928475,11.3927126 L20.8367072,11.3927126 C21.642829,11.3927126 22.2379648,11.2384181 22.6221323,10.9298246 C23.0062997,10.621231 23.1983806,10.1489011 23.1983806,9.51282051 C23.1983806,8.36661595 22.3796753,7.79352227 20.7422402,7.79352227 L18.928475,7.79352227 Z M31.1482981,13.8110661 L31.1482981,0 L34.0767731,0 L34.0767731,13.8110661 L31.1482981,13.8110661 Z M47.6569201,13.8110661 L39.702804,13.8110661 L39.702804,0 L47.6569201,0 L47.6569201,2.39946019 L42.6312791,2.39946019 L42.6312791,5.43184885 L47.3073924,5.43184885 L47.3073924,7.83130904 L42.6312791,7.83130904 L42.6312791,11.3927126 L47.6569201,11.3927126 L47.6569201,13.8110661 Z M55.6162843,6.13090418 L56.5609537,6.13090418 C57.4867343,6.13090418 58.1700383,5.97660973 58.6108862,5.66801619 C59.0517341,5.35942266 59.2721547,4.87449723 59.2721547,4.21322537 C59.2721547,3.55825134 59.0470108,3.09221911 58.5967161,2.81511471 C58.1464215,2.53801031 57.4489476,2.39946019 56.5042735,2.39946019 L55.6162843,2.39946019 L55.6162843,6.13090418 Z M55.6162843,8.51147099 L55.6162843,13.8110661 L52.6878093,13.8110661 L52.6878093,0 L56.7121008,0 C58.5888533,0 59.9775034,0.341652004 60.8780927,1.02496626 C61.778682,1.70828052 62.2289699,2.745832 62.2289699,4.13765182 C62.2289699,4.95007154 62.0054003,5.67273638 61.5582546,6.30566802 C61.1111089,6.93859966 60.4781867,7.43454611 59.6594692,7.79352227 C61.7377522,10.8983511 63.0917647,12.904179 63.7215475,13.8110661 L60.4718848,13.8110661 L57.1749888,8.51147099 L55.6162843,8.51147099 Z M78.8509522,0 L78.8509522,8.9365722 C78.8509522,9.95682022 78.6226594,10.8510983 78.1660669,11.6194332 C77.7094744,12.3877681 77.0497869,12.9766061 76.1869846,13.3859649 C75.3241822,13.7953237 74.3039495,14 73.1262558,14 C71.3502685,14 69.971065,13.5449888 68.988604,12.6349528 C68.0061429,11.7249167 67.5149198,10.4795401 67.5149198,8.89878543 L67.5149198,0 L70.4339481,0 L70.4339481,8.45479082 C70.4339481,9.51912363 70.648071,10.3000425 71.0763233,10.7975709 C71.5045755,11.2950992 72.2130705,11.5438596 73.2018294,11.5438596 C74.1590991,11.5438596 74.8534241,11.2935248 75.2848253,10.7928475 C75.7162265,10.2921702 75.9319238,9.50652807 75.9319238,8.43589744 L75.9319238,0 L78.8509522,0 Z M96.6348778,13.8110661 L92.9128805,13.8110661 L86.9047833,3.36302294 L86.8197631,3.36302294 C86.9394218,5.20828633 86.9992503,6.52451248 86.9992503,7.31174089 L86.9992503,13.8110661 L84.3825161,13.8110661 L84.3825161,0 L88.0761733,0 L94.0748238,10.3441296 L94.1409507,10.3441296 C94.0464833,8.54924879 93.9992503,7.28025563 93.9992503,6.53711201 L93.9992503,0 L96.6348778,0 L96.6348778,13.8110661 Z" id="Bierun"></path>
                <g id="Group">
                    <rect id="Rectangle-5" x="0" y="12" width="12" height="2" rx="1"></rect>
                    <rect id="Rectangle-5-Copy" x="3" y="6" width="9" height="2" rx="1"></rect>
                    <rect id="Rectangle-5-Copy-2" x="6" y="0" width="6" height="2" rx="1"></rect>
                </g>
            </g>
        </g>
    </g>
</svg>